<svg width="36" height="34" viewBox="0 0 36 34" fill="none" xmlns="http://www.w3.org/2000/svg">
<path d="M3.36823 13.3802V28.012C3.36823 29.8078 4.82397 31.2635 6.61972 31.2635H29.3802C31.176 31.2635 32.6317 29.8078 32.6317 28.012V13.3802" stroke="black" stroke-width="4"/>
<path d="M22.6062 31.2634V21.5089C22.6062 19.7131 21.1505 18.2574 19.3547 18.2574H16.1032C14.3075 18.2574 12.8517 19.7131 12.8517 21.5089V31.2634" stroke="black" stroke-width="4" stroke-miterlimit="16"/>
<path d="M33.9621 12.3466L31.2081 2.70748C31.0884 2.28872 30.7057 2 30.2702 2H23.6901L24.4628 11.2729C24.4882 11.5764 24.6531 11.8505 24.9146 12.0064C25.5475 12.3836 26.7875 13.0827 27.7545 13.3802C29.4059 13.8883 31.8202 13.7051 33.1951 13.536C33.7668 13.4658 34.1204 12.9005 33.9621 12.3466Z" stroke="black" stroke-width="4"/>
<path d="M21.2515 13.3802C22.1741 13.0964 23.3453 12.4469 24.0005 12.0603C24.3125 11.8762 24.4842 11.5286 24.4541 11.1677L23.6901 2H12.3099L11.5459 11.1677C11.5159 11.5286 11.6876 11.8762 11.9995 12.0603C12.6547 12.4469 13.8259 13.0964 14.7485 13.3802C17.1758 14.1271 18.8243 14.1271 21.2515 13.3802Z" stroke="black" stroke-width="4"/>
<path d="M4.7919 2.70748L2.03787 12.3466C1.8796 12.9005 2.23318 13.4658 2.80496 13.536C4.17979 13.7051 6.59416 13.8883 8.24553 13.3802C9.21248 13.0827 10.4525 12.3836 11.0854 12.0064C11.3469 11.8505 11.5119 11.5764 11.5372 11.2729L12.3099 2H5.72981C5.29429 2 4.91154 2.28872 4.7919 2.70748Z" stroke="black" stroke-width="4"/>
</svg>
