<svg width="70" height="65" viewBox="0 0 70 65" fill="none" xmlns="http://www.w3.org/2000/svg">
<g filter="url(#filter0_d_149_13)">
<path d="M47.9166 54.25V49.0833C47.9166 46.3428 46.8279 43.7144 44.89 41.7766C42.9521 39.8387 40.3238 38.75 37.5833 38.75H16.9166C14.176 38.75 11.5477 39.8387 9.60982 41.7766C7.67194 43.7144 6.58325 46.3428 6.58325 49.0833V54.25" stroke="black" stroke-width="4" stroke-linecap="round" stroke-linejoin="round"/>
<path d="M27.2501 28.4167C32.957 28.4167 37.5834 23.7903 37.5834 18.0833C37.5834 12.3764 32.957 7.75 27.2501 7.75C21.5431 7.75 16.9167 12.3764 16.9167 18.0833C16.9167 23.7903 21.5431 28.4167 27.2501 28.4167Z" stroke="black" stroke-width="4" stroke-linecap="round" stroke-linejoin="round"/>
<path d="M63.4167 54.25V49.0833C63.415 46.7938 62.653 44.5697 61.2503 42.7602C59.8476 40.9506 57.8836 39.6582 55.6667 39.0858" stroke="black" stroke-width="4" stroke-linecap="round" stroke-linejoin="round"/>
<path d="M45.3333 8.08585C47.556 8.65496 49.5261 9.94766 50.933 11.7601C52.3399 13.5726 53.1035 15.8018 53.1035 18.0963C53.1035 20.3907 52.3399 22.6199 50.933 24.4324C49.5261 26.2449 47.556 27.5376 45.3333 28.1067" stroke="black" stroke-width="4" stroke-linecap="round" stroke-linejoin="round"/>
</g>
<defs>
<filter id="filter0_d_149_13" x="0" y="0" width="70" height="70" filterUnits="userSpaceOnUse" color-interpolation-filters="sRGB">
<feFlood flood-opacity="0" result="BackgroundImageFix"/>
<feColorMatrix in="SourceAlpha" type="matrix" values="0 0 0 0 0 0 0 0 0 0 0 0 0 0 0 0 0 0 127 0" result="hardAlpha"/>
<feOffset dy="4"/>
<feGaussianBlur stdDeviation="2"/>
<feComposite in2="hardAlpha" operator="out"/>
<feColorMatrix type="matrix" values="0 0 0 0 0 0 0 0 0 0 0 0 0 0 0 0 0 0 0.25 0"/>
<feBlend mode="normal" in2="BackgroundImageFix" result="effect1_dropShadow_149_13"/>
<feBlend mode="normal" in="SourceGraphic" in2="effect1_dropShadow_149_13" result="shape"/>
</filter>
</defs>
</svg>
