<svg width="35" height="35" viewBox="0 0 35 35" fill="none" xmlns="http://www.w3.org/2000/svg">
<path d="M32.75 16.5209C32.7559 18.7757 32.2291 20.9999 31.2125 23.0126C30.0072 25.4243 28.1542 27.4528 25.8611 28.8709C23.568 30.289 20.9253 31.0407 18.2292 31.0417C15.9744 31.0476 13.7501 30.5208 11.7375 29.5042L2 32.75L5.24583 23.0126C4.22926 20.9999 3.70245 18.7757 3.70833 16.5209C3.70938 13.8247 4.46105 11.1821 5.87915 8.88899C7.29725 6.59589 9.32577 4.74289 11.7375 3.53755C13.7501 2.52097 15.9744 1.99417 18.2292 2.00005H19.0833C22.6441 2.19649 26.0073 3.69943 28.5289 6.2211C31.0506 8.74277 32.5536 12.106 32.75 15.6667V16.5209Z" stroke="black" stroke-width="4" stroke-linecap="round" stroke-linejoin="round"/>
</svg>
